<svg width="18" height="18" viewBox="0 0 18 18" fill="none" xmlns="http://www.w3.org/2000/svg">
<path fill-rule="evenodd" clip-rule="evenodd" d="M5.2896 0.054C6.2496 0.0102 6.5556 0 9 0C11.445 0 11.7504 0.0108 12.7098 0.054C13.668 0.0978 14.3232 0.2508 14.8956 0.4722C15.4959 0.698315 16.0397 1.05253 16.4892 1.5102C16.947 1.95979 17.3012 2.50384 17.5272 3.1044C17.7498 3.6768 17.9022 4.3314 17.946 5.2896C17.9898 6.2496 18 6.5556 18 9C18 11.4444 17.9898 11.7504 17.946 12.7104C17.9022 13.6686 17.7498 14.3232 17.5278 14.8956C17.3017 15.4959 16.9475 16.0397 16.4898 16.4892C16.0398 16.9476 15.4956 17.3016 14.8956 17.5272C14.3232 17.7498 13.6686 17.9022 12.7104 17.946C11.7504 17.9898 11.4444 18 9 18C6.5556 18 6.2496 17.9898 5.2896 17.946C4.3314 17.9022 3.6768 17.7498 3.1044 17.5278C2.50411 17.3017 1.96029 16.9475 1.5108 16.4898C1.0524 16.0398 0.6984 15.4956 0.4728 14.8956C0.2502 14.3232 0.0978 13.6686 0.054 12.7104C0.0102 11.7504 0 11.445 0 9C0 6.555 0.0108 6.2496 0.054 5.2902C0.0978 4.332 0.2508 3.6768 0.4722 3.1044C0.698315 2.5041 1.05253 1.96028 1.5102 1.5108C1.9602 1.0524 2.5044 0.6984 3.1044 0.4728C3.6768 0.2502 4.3314 0.0978 5.2896 0.054ZM12.6372 1.674C11.688 1.6308 11.403 1.6218 9 1.6218C6.597 1.6218 6.312 1.6308 5.3628 1.674C4.4856 1.7142 4.0092 1.8606 3.6918 1.9842C3.30085 2.12819 2.94716 2.35803 2.6568 2.6568C2.3424 2.9718 2.1468 3.2718 1.9842 3.6918C1.86 4.0092 1.7142 4.4856 1.674 5.3628C1.6308 6.312 1.6218 6.597 1.6218 9C1.6218 11.403 1.6308 11.688 1.674 12.6372C1.7142 13.5144 1.8606 13.9908 1.9842 14.3082C2.12828 14.6991 2.35811 15.0528 2.6568 15.3432C2.9472 15.6419 3.30087 15.8718 3.6918 16.0158C4.0092 16.14 4.4856 16.2858 5.3628 16.326C6.312 16.3692 6.5964 16.3782 9 16.3782C11.4036 16.3782 11.688 16.3692 12.6372 16.326C13.5144 16.2858 13.9908 16.1394 14.3082 16.0158C14.6992 15.8718 15.0528 15.642 15.3432 15.3432C15.6419 15.0528 15.8718 14.6991 16.0158 14.3082C16.14 13.9908 16.2858 13.5144 16.326 12.6372C16.3692 11.688 16.3782 11.403 16.3782 9C16.3782 6.597 16.3692 6.312 16.326 5.3628C16.2858 4.4856 16.1394 4.0092 16.0158 3.6918C15.8532 3.2718 15.6582 2.9718 15.3432 2.6568C15.0282 2.3424 14.7282 2.1468 14.3082 1.9842C13.9908 1.86 13.5144 1.7142 12.6372 1.674ZM7.94545 11.7742C8.31418 11.9251 8.70938 12.0028 9.10849 12.0028C9.91453 12.0028 10.6876 11.6864 11.2575 11.1232C11.8275 10.5601 12.1477 9.79623 12.1477 8.99979C12.1477 8.20334 11.8275 7.43952 11.2575 6.87635C10.6876 6.31318 9.91453 5.99679 9.10849 5.99679C8.70938 5.99679 8.31418 6.07446 7.94545 6.22538C7.57672 6.37629 7.24168 6.59749 6.95947 6.87635C6.67725 7.1552 6.45339 7.48625 6.30066 7.85059C6.14792 8.21493 6.06931 8.60543 6.06931 8.99979C6.06931 9.39415 6.14792 9.78465 6.30066 10.149C6.45339 10.5133 6.67725 10.8444 6.95947 11.1232C7.24168 11.4021 7.57672 11.6233 7.94545 11.7742ZM5.79801 5.72871C6.676 4.86117 7.86682 4.37379 9.10849 4.37379C10.3502 4.37379 11.541 4.86117 12.419 5.72871C13.297 6.59626 13.7902 7.7729 13.7902 8.99979C13.7902 10.2267 13.297 11.4033 12.419 12.2709C11.541 13.1384 10.3502 13.6258 9.10849 13.6258C7.86682 13.6258 6.676 13.1384 5.79801 12.2709C4.92001 11.4033 4.42676 10.2267 4.42676 8.99979C4.42676 7.7729 4.92001 6.59626 5.79801 5.72871ZM14.8281 5.06301C15.0356 4.85794 15.1522 4.5798 15.1522 4.28979C15.1522 3.99977 15.0356 3.72164 14.8281 3.51657C14.6206 3.3115 14.3391 3.19629 14.0456 3.19629C13.7521 3.19629 13.4706 3.3115 13.263 3.51657C13.0555 3.72164 12.9389 3.99977 12.9389 4.28979C12.9389 4.5798 13.0555 4.85794 13.263 5.06301C13.4706 5.26808 13.7521 5.38329 14.0456 5.38329C14.3391 5.38329 14.6206 5.26808 14.8281 5.06301Z" fill="white"/>
</svg>
